<mxfile host="app.diagrams.net" modified="2022-09-28T06:59:19.722Z" agent="5.0 (Macintosh; Intel Mac OS X 10_15_6) AppleWebKit/605.1.15 (KHTML, like Gecko) Version/15.6.1 Safari/605.1.15" etag="YTmdK3Ku2iOH0cAMTZNs" version="20.3.7" type="github">
  <diagram id="dWj9TwvV1gGiNtELdjm1" name="หน้า-1">
    <mxGraphModel dx="993" dy="598" grid="1" gridSize="10" guides="1" tooltips="1" connect="1" arrows="1" fold="1" page="1" pageScale="1" pageWidth="827" pageHeight="1169" math="0" shadow="0">
      <root>
        <mxCell id="0" />
        <mxCell id="1" parent="0" />
        <mxCell id="hGGDuQWn7y-H-F-gl3Fu-5" value="" style="edgeStyle=orthogonalEdgeStyle;rounded=0;orthogonalLoop=1;jettySize=auto;html=1;fontSize=20;" edge="1" parent="1" source="hGGDuQWn7y-H-F-gl3Fu-1" target="hGGDuQWn7y-H-F-gl3Fu-4">
          <mxGeometry relative="1" as="geometry" />
        </mxCell>
        <mxCell id="hGGDuQWn7y-H-F-gl3Fu-1" value="&lt;b&gt;&lt;font style=&quot;font-size: 20px;&quot;&gt;Start&lt;/font&gt;&lt;/b&gt;" style="rounded=1;whiteSpace=wrap;html=1;fillColor=#b0e3e6;strokeColor=#0e8088;" vertex="1" parent="1">
          <mxGeometry x="40" y="40" width="120" height="60" as="geometry" />
        </mxCell>
        <mxCell id="hGGDuQWn7y-H-F-gl3Fu-7" value="" style="edgeStyle=orthogonalEdgeStyle;rounded=0;orthogonalLoop=1;jettySize=auto;html=1;fontSize=20;" edge="1" parent="1" source="hGGDuQWn7y-H-F-gl3Fu-4" target="hGGDuQWn7y-H-F-gl3Fu-6">
          <mxGeometry relative="1" as="geometry" />
        </mxCell>
        <mxCell id="hGGDuQWn7y-H-F-gl3Fu-11" value="" style="edgeStyle=orthogonalEdgeStyle;rounded=0;orthogonalLoop=1;jettySize=auto;html=1;fontSize=20;" edge="1" parent="1" source="hGGDuQWn7y-H-F-gl3Fu-4" target="hGGDuQWn7y-H-F-gl3Fu-10">
          <mxGeometry relative="1" as="geometry" />
        </mxCell>
        <mxCell id="hGGDuQWn7y-H-F-gl3Fu-4" value="&lt;b&gt;Is it during the week&lt;/b&gt;" style="rhombus;whiteSpace=wrap;html=1;fillColor=#fad9d5;strokeColor=#ae4132;rounded=1;arcSize=0;" vertex="1" parent="1">
          <mxGeometry x="30" y="130" width="140" height="70" as="geometry" />
        </mxCell>
        <mxCell id="hGGDuQWn7y-H-F-gl3Fu-9" value="" style="edgeStyle=orthogonalEdgeStyle;rounded=0;orthogonalLoop=1;jettySize=auto;html=1;fontSize=20;" edge="1" parent="1" source="hGGDuQWn7y-H-F-gl3Fu-6" target="hGGDuQWn7y-H-F-gl3Fu-8">
          <mxGeometry relative="1" as="geometry" />
        </mxCell>
        <mxCell id="hGGDuQWn7y-H-F-gl3Fu-15" value="" style="edgeStyle=orthogonalEdgeStyle;rounded=0;orthogonalLoop=1;jettySize=auto;html=1;fontSize=20;entryX=0;entryY=0.5;entryDx=0;entryDy=0;" edge="1" parent="1" source="hGGDuQWn7y-H-F-gl3Fu-6" target="hGGDuQWn7y-H-F-gl3Fu-39">
          <mxGeometry relative="1" as="geometry">
            <mxPoint x="210" y="265" as="targetPoint" />
          </mxGeometry>
        </mxCell>
        <mxCell id="hGGDuQWn7y-H-F-gl3Fu-6" value="&lt;b&gt;Is it between 06.00 and 08.30 in the morning and 17.30 - 22.00 at night?&lt;/b&gt;" style="rhombus;whiteSpace=wrap;html=1;fillColor=#fad9d5;strokeColor=#ae4132;rounded=1;arcSize=0;" vertex="1" parent="1">
          <mxGeometry x="20" y="225" width="160" height="80" as="geometry" />
        </mxCell>
        <mxCell id="hGGDuQWn7y-H-F-gl3Fu-23" value="" style="edgeStyle=orthogonalEdgeStyle;rounded=0;orthogonalLoop=1;jettySize=auto;html=1;fontSize=20;" edge="1" parent="1" source="hGGDuQWn7y-H-F-gl3Fu-8" target="hGGDuQWn7y-H-F-gl3Fu-22">
          <mxGeometry relative="1" as="geometry" />
        </mxCell>
        <mxCell id="hGGDuQWn7y-H-F-gl3Fu-8" value="&lt;b&gt;Is the temperature below 10&lt;font size=&quot;1&quot;&gt;&lt;sup&gt;o&lt;/sup&gt;C?&lt;/font&gt;&lt;/b&gt;" style="rhombus;whiteSpace=wrap;html=1;fillColor=#fad9d5;strokeColor=#ae4132;rounded=1;arcSize=0;" vertex="1" parent="1">
          <mxGeometry x="20" y="335" width="160" height="70" as="geometry" />
        </mxCell>
        <mxCell id="hGGDuQWn7y-H-F-gl3Fu-19" value="" style="edgeStyle=orthogonalEdgeStyle;rounded=0;orthogonalLoop=1;jettySize=auto;html=1;fontSize=20;entryX=0;entryY=0.5;entryDx=0;entryDy=0;" edge="1" parent="1" source="hGGDuQWn7y-H-F-gl3Fu-10" target="hGGDuQWn7y-H-F-gl3Fu-44">
          <mxGeometry relative="1" as="geometry">
            <mxPoint x="380.0175438596491" y="164.9473684210526" as="targetPoint" />
          </mxGeometry>
        </mxCell>
        <mxCell id="hGGDuQWn7y-H-F-gl3Fu-10" value="&lt;b&gt;Is it between 08.00 and 23.00?&lt;/b&gt;" style="rhombus;whiteSpace=wrap;html=1;fillColor=#fad9d5;strokeColor=#ae4132;rounded=1;arcSize=0;" vertex="1" parent="1">
          <mxGeometry x="200" y="132.5" width="140" height="65" as="geometry" />
        </mxCell>
        <mxCell id="hGGDuQWn7y-H-F-gl3Fu-28" style="edgeStyle=orthogonalEdgeStyle;rounded=0;orthogonalLoop=1;jettySize=auto;html=1;fontFamily=Helvetica;fontSize=12;fontColor=default;entryX=1;entryY=0.5;entryDx=0;entryDy=0;exitX=0.5;exitY=1;exitDx=0;exitDy=0;" edge="1" parent="1" source="hGGDuQWn7y-H-F-gl3Fu-39" target="hGGDuQWn7y-H-F-gl3Fu-8">
          <mxGeometry relative="1" as="geometry">
            <mxPoint x="410" y="380" as="targetPoint" />
            <mxPoint x="350" y="265" as="sourcePoint" />
            <Array as="points">
              <mxPoint x="287" y="370" />
            </Array>
          </mxGeometry>
        </mxCell>
        <mxCell id="hGGDuQWn7y-H-F-gl3Fu-25" value="" style="edgeStyle=orthogonalEdgeStyle;rounded=0;orthogonalLoop=1;jettySize=auto;html=1;fontSize=20;" edge="1" parent="1" source="hGGDuQWn7y-H-F-gl3Fu-22" target="hGGDuQWn7y-H-F-gl3Fu-24">
          <mxGeometry relative="1" as="geometry" />
        </mxCell>
        <mxCell id="hGGDuQWn7y-H-F-gl3Fu-29" style="edgeStyle=orthogonalEdgeStyle;rounded=0;orthogonalLoop=1;jettySize=auto;html=1;exitX=1;exitY=0.5;exitDx=0;exitDy=0;fontFamily=Helvetica;fontSize=12;fontColor=default;entryX=1;entryY=0.5;entryDx=0;entryDy=0;" edge="1" parent="1" source="hGGDuQWn7y-H-F-gl3Fu-22" target="hGGDuQWn7y-H-F-gl3Fu-8">
          <mxGeometry relative="1" as="geometry">
            <mxPoint x="210" y="370" as="targetPoint" />
            <Array as="points">
              <mxPoint x="240" y="470" />
              <mxPoint x="240" y="370" />
            </Array>
          </mxGeometry>
        </mxCell>
        <mxCell id="hGGDuQWn7y-H-F-gl3Fu-22" value="&lt;b&gt;Switch boiler on&lt;/b&gt;" style="shape=parallelogram;perimeter=parallelogramPerimeter;whiteSpace=wrap;html=1;fixedSize=1;fillColor=#d0cee2;strokeColor=#56517e;rounded=1;arcSize=0;" vertex="1" parent="1">
          <mxGeometry x="25" y="440" width="150" height="60" as="geometry" />
        </mxCell>
        <mxCell id="hGGDuQWn7y-H-F-gl3Fu-46" style="edgeStyle=orthogonalEdgeStyle;rounded=0;orthogonalLoop=1;jettySize=auto;html=1;exitX=0;exitY=0.5;exitDx=0;exitDy=0;fontFamily=Helvetica;fontSize=12;fontColor=default;entryX=0;entryY=0.5;entryDx=0;entryDy=0;" edge="1" parent="1" source="hGGDuQWn7y-H-F-gl3Fu-24" target="hGGDuQWn7y-H-F-gl3Fu-1">
          <mxGeometry relative="1" as="geometry">
            <mxPoint x="20" y="100" as="targetPoint" />
            <Array as="points">
              <mxPoint x="10" y="580" />
              <mxPoint x="10" y="70" />
            </Array>
          </mxGeometry>
        </mxCell>
        <mxCell id="hGGDuQWn7y-H-F-gl3Fu-24" value="&lt;b&gt;&lt;font style=&quot;font-size: 20px;&quot;&gt;End&lt;/font&gt;&lt;/b&gt;" style="whiteSpace=wrap;html=1;fillColor=#b0e3e6;strokeColor=#0e8088;rounded=1;arcSize=15;" vertex="1" parent="1">
          <mxGeometry x="40" y="550" width="120" height="60" as="geometry" />
        </mxCell>
        <mxCell id="hGGDuQWn7y-H-F-gl3Fu-26" style="edgeStyle=orthogonalEdgeStyle;rounded=0;orthogonalLoop=1;jettySize=auto;html=1;exitX=1;exitY=0.5;exitDx=0;exitDy=0;fontSize=20;" edge="1" parent="1" source="hGGDuQWn7y-H-F-gl3Fu-44">
          <mxGeometry relative="1" as="geometry">
            <mxPoint x="510" y="165" as="sourcePoint" />
            <mxPoint x="160" y="580" as="targetPoint" />
            <Array as="points">
              <mxPoint x="530" y="165" />
              <mxPoint x="530" y="580" />
            </Array>
          </mxGeometry>
        </mxCell>
        <mxCell id="hGGDuQWn7y-H-F-gl3Fu-30" value="&lt;b&gt;YES&lt;/b&gt;" style="text;html=1;align=center;verticalAlign=middle;resizable=0;points=[];autosize=1;strokeColor=none;fillColor=none;fontSize=12;fontFamily=Helvetica;fontColor=default;" vertex="1" parent="1">
          <mxGeometry x="100" y="200" width="50" height="30" as="geometry" />
        </mxCell>
        <mxCell id="hGGDuQWn7y-H-F-gl3Fu-32" value="&lt;b&gt;YES&lt;/b&gt;" style="text;html=1;align=center;verticalAlign=middle;resizable=0;points=[];autosize=1;strokeColor=none;fillColor=none;fontSize=12;fontFamily=Helvetica;fontColor=default;" vertex="1" parent="1">
          <mxGeometry x="100" y="410" width="50" height="30" as="geometry" />
        </mxCell>
        <mxCell id="hGGDuQWn7y-H-F-gl3Fu-33" value="&lt;b&gt;NO&lt;/b&gt;" style="text;html=1;align=center;verticalAlign=middle;resizable=0;points=[];autosize=1;strokeColor=none;fillColor=none;fontSize=12;fontFamily=Helvetica;fontColor=default;" vertex="1" parent="1">
          <mxGeometry x="165" y="130" width="40" height="30" as="geometry" />
        </mxCell>
        <mxCell id="hGGDuQWn7y-H-F-gl3Fu-40" style="edgeStyle=orthogonalEdgeStyle;rounded=0;orthogonalLoop=1;jettySize=auto;html=1;exitX=1;exitY=0.5;exitDx=0;exitDy=0;fontFamily=Helvetica;fontSize=12;fontColor=default;entryX=1;entryY=0.5;entryDx=0;entryDy=0;" edge="1" parent="1" source="hGGDuQWn7y-H-F-gl3Fu-39" target="hGGDuQWn7y-H-F-gl3Fu-24">
          <mxGeometry relative="1" as="geometry">
            <mxPoint x="190" y="550" as="targetPoint" />
          </mxGeometry>
        </mxCell>
        <mxCell id="hGGDuQWn7y-H-F-gl3Fu-39" value="&lt;font style=&quot;font-size: 12px;&quot;&gt;&lt;b&gt;Is the temperature at 20&lt;sup&gt;o&lt;/sup&gt;C?&lt;/b&gt;&lt;/font&gt;" style="rhombus;whiteSpace=wrap;html=1;rounded=1;strokeColor=#ae4132;fontFamily=Helvetica;fontSize=20;fontColor=default;fillColor=#fad9d5;arcSize=0;" vertex="1" parent="1">
          <mxGeometry x="215" y="232.5" width="145" height="65" as="geometry" />
        </mxCell>
        <mxCell id="hGGDuQWn7y-H-F-gl3Fu-42" value="&lt;b&gt;YES&lt;/b&gt;" style="text;html=1;align=center;verticalAlign=middle;resizable=0;points=[];autosize=1;strokeColor=none;fillColor=none;fontSize=12;fontFamily=Helvetica;fontColor=default;" vertex="1" parent="1">
          <mxGeometry x="330" y="305" width="50" height="30" as="geometry" />
        </mxCell>
        <mxCell id="hGGDuQWn7y-H-F-gl3Fu-43" value="&lt;b&gt;YES&lt;/b&gt;" style="text;html=1;align=center;verticalAlign=middle;resizable=0;points=[];autosize=1;strokeColor=none;fillColor=none;fontSize=12;fontFamily=Helvetica;fontColor=default;" vertex="1" parent="1">
          <mxGeometry x="170" y="232.5" width="50" height="30" as="geometry" />
        </mxCell>
        <mxCell id="hGGDuQWn7y-H-F-gl3Fu-47" value="" style="edgeStyle=orthogonalEdgeStyle;rounded=0;orthogonalLoop=1;jettySize=auto;html=1;fontFamily=Helvetica;fontSize=12;fontColor=default;entryX=1;entryY=0.5;entryDx=0;entryDy=0;" edge="1" parent="1" source="hGGDuQWn7y-H-F-gl3Fu-44" target="hGGDuQWn7y-H-F-gl3Fu-8">
          <mxGeometry relative="1" as="geometry">
            <Array as="points">
              <mxPoint x="440" y="370" />
            </Array>
          </mxGeometry>
        </mxCell>
        <mxCell id="hGGDuQWn7y-H-F-gl3Fu-44" value="&lt;b&gt;Is the temperature at 20&lt;sup&gt;o&lt;/sup&gt;C?&lt;/b&gt;" style="rhombus;whiteSpace=wrap;html=1;rounded=1;strokeColor=#ae4132;fontFamily=Helvetica;fontSize=12;fontColor=default;fillColor=#fad9d5;arcSize=0;" vertex="1" parent="1">
          <mxGeometry x="370" y="132.5" width="140" height="65" as="geometry" />
        </mxCell>
        <mxCell id="hGGDuQWn7y-H-F-gl3Fu-45" value="&lt;b&gt;YES&lt;/b&gt;" style="text;html=1;align=center;verticalAlign=middle;resizable=0;points=[];autosize=1;strokeColor=none;fillColor=none;fontSize=12;fontFamily=Helvetica;fontColor=default;" vertex="1" parent="1">
          <mxGeometry x="480" y="240" width="50" height="30" as="geometry" />
        </mxCell>
      </root>
    </mxGraphModel>
  </diagram>
</mxfile>
